<svg version="1.2" baseProfile="tiny-ps" xmlns="http://www.w3.org/2000/svg" viewBox="0 0 18 17" width="18" height="17">
	<title>icon-linkedin</title>
	<style>
		tspan { white-space:pre }
		.shp0 { fill: #ffffff } 
	</style>
	<path id="icon-linkedin" class="shp0" d="M4.73 6.43L1.68 6.43L1.68 16L4.73 16L4.73 6.43L4.73 6.43ZM4.94 3.47C4.93 2.71 4.27 2 3.22 2C2.19 2 1.5 2.71 1.5 3.65C1.5 4.57 2.16 5.3 3.19 5.3L3.2 5.3C4.27 5.3 4.95 4.57 4.94 3.65L4.94 3.47L4.94 3.47ZM16.5 10.44C16.5 7.62 15 6.39 12.95 6.39C11.14 6.21 10.35 7.16 9.91 7.82L9.93 7.84L9.93 6.58L6.58 6.58C6.58 6.58 6.62 7.39 6.58 15.93L9.93 15.93L9.93 10.59C9.93 10.3 9.96 10.02 10.04 9.81C10.28 9.24 10.83 8.65 11.76 8.65C12.97 8.65 13.46 9.53 13.46 10.81L13.46 15.93L16.5 15.93L16.5 10.44L16.5 10.44Z" />
</svg>