<svg version="1.2" baseProfile="tiny-ps" xmlns="http://www.w3.org/2000/svg" viewBox="0 0 16 17" width="16" height="17">
	<title>icon-rss</title>
	<style>
		tspan { white-space:pre }
		.shp0 { fill: #ffffff } 
	</style>
	<path id="icon-rss" class="shp0" d="M5.04 14.09C5.04 13.04 4.25 12.18 3.27 12.18C2.29 12.18 1.5 13.04 1.5 14.09C1.5 15.14 2.29 16 3.27 16C4.25 16 5.04 15.14 5.04 14.09L5.04 14.09ZM9.77 15.31C9.61 13.2 8.75 11.2 7.35 9.7C5.96 8.18 4.1 7.26 2.14 7.09L2.09 7.09C1.94 7.09 1.8 7.15 1.69 7.26C1.56 7.38 1.5 7.55 1.5 7.73L1.5 9.07C1.5 9.4 1.73 9.67 2.04 9.7C4.85 9.98 7.08 12.39 7.35 15.42C7.38 15.75 7.63 16 7.93 16L9.18 16C9.34 16 9.5 15.93 9.61 15.79C9.72 15.66 9.78 15.49 9.77 15.31L9.77 15.31ZM14.5 15.33C14.33 11.85 12.97 8.58 10.67 6.12C8.38 3.64 5.35 2.18 2.12 2L2.09 2C1.94 2 1.8 2.06 1.68 2.18C1.56 2.3 1.5 2.46 1.5 2.64L1.5 4.06C1.5 4.39 1.74 4.66 2.05 4.68C7.41 5.02 11.69 9.63 11.99 15.4C12.01 15.74 12.27 16 12.58 16L13.9 16C14.07 16 14.21 15.93 14.33 15.8C14.45 15.67 14.51 15.5 14.5 15.33L14.5 15.33Z" />
</svg>