<svg version="1.2" baseProfile="tiny-ps" xmlns="http://www.w3.org/2000/svg" viewBox="0 0 18 16" width="18" height="16">
	<title>icon-twitter</title>
	<style>
		tspan { white-space:pre }
		.shp0 { fill: #ffffff } 
	</style>
	<path id="icon-twitter" class="shp0" d="M16.5 3.04C15.95 3.3 15.35 3.48 14.73 3.55C15.37 3.15 15.85 2.51 16.08 1.74C15.49 2.12 14.83 2.39 14.13 2.54C13.57 1.9 12.77 1.5 11.89 1.5C10.18 1.5 8.81 2.97 8.81 4.78C8.81 5.03 8.84 5.29 8.89 5.53C6.34 5.39 4.06 4.09 2.55 2.1C2.28 2.59 2.13 3.15 2.13 3.75C2.13 4.89 2.67 5.9 3.5 6.49C2.99 6.47 2.52 6.31 2.11 6.07L2.11 6.11C2.11 7.71 3.17 9.03 4.57 9.33C4.32 9.4 4.04 9.44 3.77 9.44C3.57 9.44 3.38 9.42 3.18 9.39C3.58 10.69 4.71 11.64 6.06 11.67C5 12.55 3.68 13.07 2.24 13.07C1.99 13.07 1.75 13.06 1.5 13.03C2.86 13.96 4.48 14.5 6.22 14.5C11.88 14.5 14.97 9.5 14.97 5.17C14.97 5.02 14.97 4.88 14.96 4.74C15.56 4.27 16.08 3.69 16.5 3.04L16.5 3.04Z" />
</svg>