<svg version="1.2" baseProfile="tiny-ps" xmlns="http://www.w3.org/2000/svg" viewBox="0 0 18 18" width="18" height="18">
	<title>icon-pinterest</title>
	<style>
		tspan { white-space:pre }
		.shp0 { fill: #ffffff } 
	</style>
	<path id="icon-pinterest" class="shp0" d="M16.5 9.38C16.5 5.13 12.99 1.5 9.11 1.5C4.85 1.5 1.5 5.13 1.5 9.38C1.5 12.62 3.24 15.08 6.06 16C6.04 15.58 6.05 15.08 6.18 14.63C6.18 14.63 6.33 14.15 7.16 10.5C6.91 10 6.91 9.24 6.91 9.24C6.91 8.07 7.57 7.19 8.38 7.19C9.08 7.19 9.42 7.74 9.42 8.39C9.42 9.11 8.97 10.19 8.74 11.19C8.55 12.04 9.15 12.72 9.83 12.72C10.96 12.72 11.71 10.79 11.71 8.51C11.71 6.84 10.83 5.77 9.19 5.77C6.87 5.77 5.45 7.26 5.45 9.26C5.45 9.95 5.64 10.44 5.95 10.82C6.09 10.99 6.11 11.06 6.06 11.26C6.02 11.41 5.94 11.76 5.9 11.89C5.85 12.1 5.69 12.17 5.53 12.1C4.35 11.64 3.79 10.43 3.79 9.07C3.79 6.89 5.79 3.91 9.4 3.91C11.67 3.91 14.21 6.47 14.21 8.66C14.21 11.77 11.98 14.09 9.96 14.09C9.29 14.09 8.51 13.62 8.25 13.1C7.81 14.72 7.72 14.98 7.72 14.98C7.56 15.44 7.23 15.89 6.94 16.25C7.64 16.41 8.35 16.5 9.11 16.5C12.99 16.5 16.5 13.75 16.5 9.38L16.5 9.38Z" />
</svg>